# xmcd
#
# Track frame offsets: 
#        150
#        15218
#        37042
#        44415
#        57325
#        67615
#        78614
#        93647
#        107197
#        123535
#        138012
#        152060
#
# Disc length: 2226 seconds
#
# Revision: 0
# Processed by: cddbd v1.5.2PL0 Copyright (c) Steve Scherf et al.
# Submitted via: ExactAudioCopy v0.99pb5
#
DISCID=9708b00c
DTITLE=Johnny Ketzel und sein Schliesser - Johnny Ketzel
DYEAR=2010
DGENRE=Country
TTITLE0=Groﬂer Fluss
TTITLE1=S¸ﬂer, kleiner Tod
TTITLE2=In Schuld
TTITLE3=Trinkt auf Silvia
TTITLE4=Platzverweis
TTITLE5=Im Nachttisch neben ihrem Bett
TTITLE6=Auf verlorenem Posten
TTITLE7=Mir f‰llt alles in den Schoﬂ
TTITLE8=Der groﬂe Rausch
TTITLE9=Die Liebe hat verloren
TTITLE10=‹bern Jordan
TTITLE11=Solange bis du umf‰llst
EXTD=
EXTT0=
EXTT1=
EXTT2=
EXTT3=
EXTT4=
EXTT5=
EXTT6=
EXTT7=
EXTT8=
EXTT9=
EXTT10=
EXTT11=
PLAYORDER=
